<?xml version="1.0" standalone="no"?>
<!DOCTYPE svg PUBLIC "-//W3C//DTD SVG 20010904//EN"
 "http://www.w3.org/TR/2001/REC-SVG-20010904/DTD/svg10.dtd">
<svg version="1.0" xmlns="http://www.w3.org/2000/svg"
 width="300.000000pt" height="225.000000pt" viewBox="0 0 300.000000 225.000000"
 preserveAspectRatio="xMidYMid meet">
<metadata>
Created by potrace 1.10, written by Peter Selinger 2001-2011
</metadata>
<g transform="translate(0.000000,225.000000) scale(0.100000,-0.100000)"
fill="#000000" stroke="none">
<path d="M2900 2212 c0 -33 -5 -42 -36 -63 -36 -24 -36 -25 -36 -94 0 -91 1
-93 12 -75 5 8 7 23 4 32 -3 9 0 25 5 35 5 10 13 35 16 56 3 20 10 37 15 37
13 0 23 -57 14 -82 -5 -13 -8 -36 -9 -53 0 -25 -5 -32 -32 -40 -18 -5 -33 -14
-33 -20 0 -6 -40 -40 -90 -74 -49 -35 -90 -68 -90 -73 0 -14 63 25 181 112 56
41 118 84 137 96 39 22 53 44 28 44 -13 0 -16 12 -16 59 0 43 -4 60 -15 65 -9
3 -15 19 -15 41 0 28 -4 35 -20 35 -17 0 -20 -7 -20 -38z m30 -118 c0 -14 10
-34 22 -44 l22 -17 -23 -13 c-19 -10 -25 -10 -32 1 -12 19 -11 99 1 99 6 0 10
-12 10 -26z"/>
<path d="M1302 2195 c-77 -27 -116 -49 -215 -122 -82 -60 -159 -98 -254 -125
-76 -21 -177 -25 -453 -14 -24 1 -34 -3 -32 -12 1 -8 -7 -16 -18 -19 -11 -3
-21 -13 -21 -22 -1 -9 -4 -148 -8 -309 l-6 -292 24 0 c18 0 22 -4 18 -19 -4
-17 8 -19 249 -23 170 -3 258 -9 267 -16 8 -7 17 -8 21 -4 4 4 6 2 4 -3 -2 -6
18 -35 44 -65 26 -30 81 -95 124 -145 42 -49 119 -155 171 -233 l94 -144 -2
-216 c-4 -371 -3 -412 14 -412 9 0 12 64 12 288 0 158 -4 296 -9 306 -7 14 -6
17 2 12 18 -11 15 31 -5 61 -10 15 -16 38 -15 52 2 19 0 22 -7 12 -7 -11 -13
-7 -26 19 -9 18 -12 29 -6 26 22 -14 10 7 -21 37 -18 17 -27 27 -19 22 10 -5
12 -4 7 4 -4 6 0 14 8 17 13 5 16 24 15 108 -1 83 -3 95 -10 66 -6 -19 -24
-47 -42 -62 -19 -18 -26 -28 -16 -28 8 0 20 5 26 11 18 18 26 -7 18 -57 -7
-47 -15 -54 -36 -27 -12 14 -12 16 1 9 8 -4 6 0 -5 9 -11 9 -19 21 -18 26 2 5
-2 9 -7 9 -6 0 -10 7 -10 15 0 8 -24 38 -53 67 -30 29 -69 71 -88 94 -19 23
-9 15 21 -17 l55 -59 50 24 c28 13 59 31 70 40 38 30 -8 18 -67 -18 l-56 -34
-52 64 c-30 37 -57 61 -65 58 -11 -5 -65 52 -65 68 0 10 124 -4 148 -16 20
-10 16 -12 -30 -11 -43 0 -53 -3 -56 -18 -3 -16 -1 -16 15 -6 15 9 37 6 113
-16 52 -15 119 -31 149 -36 30 -5 58 -12 63 -15 5 -3 8 -82 8 -176 -1 -130 1
-174 12 -184 11 -11 13 18 15 178 1 134 4 193 13 198 16 10 -14 22 -35 14 -8
-4 -15 -1 -15 5 0 6 12 11 28 11 28 0 54 12 53 24 -5 37 1 54 17 50 9 -2 53
-5 97 -7 79 -3 80 -3 83 -30 3 -23 0 -27 -25 -28 -17 -1 -5 -6 32 -14 l60 -12
-55 -4 c-30 -1 -92 -2 -137 -1 -50 1 -83 -2 -83 -8 0 -9 116 -16 183 -11 26 2
28 0 22 -20 -4 -12 -8 -53 -8 -91 0 -37 -4 -68 -8 -68 -4 0 -4 -12 0 -28 4
-15 4 -42 0 -60 -4 -17 -3 -35 2 -38 5 -3 9 -16 9 -29 0 -13 5 -27 11 -31 9
-5 10 -45 5 -143 -4 -75 -9 -241 -13 -368 -5 -211 -4 -233 11 -233 14 0 16 28
16 276 0 274 0 275 24 307 13 18 32 48 41 67 45 89 174 267 278 382 64 70 118
136 122 147 5 17 19 20 101 26 52 4 169 4 259 0 146 -6 166 -5 171 9 3 9 13
16 21 16 13 0 15 31 12 238 l-4 237 90 47 c50 26 89 52 88 57 -2 6 38 31 87
56 81 41 112 66 98 81 -4 4 -260 -131 -335 -178 l-33 -20 0 36 c0 26 -4 36
-15 36 -9 0 -18 6 -21 14 -4 10 -43 15 -157 20 -84 4 -183 14 -222 23 -93 20
-195 70 -280 137 -151 119 -197 149 -278 177 -112 39 -247 40 -355 4z m350
-31 c87 -32 146 -68 251 -156 86 -72 190 -128 282 -153 38 -11 120 -19 222
-22 143 -5 164 -8 179 -25 15 -16 19 -55 27 -273 9 -239 8 -255 -9 -279 l-19
-26 -245 5 c-135 3 -418 10 -630 15 -212 5 -599 13 -860 16 l-475 7 -24 26
-24 26 2 268 c3 343 -19 313 229 309 158 -3 192 -1 264 17 102 26 184 65 273
131 101 74 165 108 247 130 96 27 208 21 310 -16z m-406 -944 l112 0 4 -30 c4
-23 1 -30 -12 -30 -23 0 -123 18 -205 37 -79 18 -115 40 -50 29 22 -3 90 -6
151 -6z m742 -16 c34 -3 62 -7 62 -9 0 -2 -3 -10 -6 -19 -5 -13 -8 -13 -19 -2
-17 17 -86 31 -94 19 -3 -4 -19 -8 -36 -9 -16 0 -83 -9 -147 -19 -122 -18
-151 -16 -143 10 3 8 7 21 9 29 4 11 33 13 158 10 84 -3 181 -7 216 -10z m12
-47 c0 -7 -21 -33 -46 -57 -58 -56 -179 -217 -233 -308 -40 -67 -43 -69 -74
-63 l-32 7 -3 176 -2 175 31 7 c66 13 64 14 61 -80 -3 -65 -7 -84 -17 -81 -12
5 -35 -10 -35 -23 0 -3 12 -6 27 -5 26 0 27 -2 25 -50 -2 -47 -2 -49 13 -30
14 17 16 43 13 151 l-3 132 120 27 c66 15 125 28 130 30 20 7 25 5 25 -8z
m-344 -456 c16 12 15 9 -2 -21 -11 -19 -26 -46 -32 -60 -10 -23 -11 -21 -10
20 2 58 8 77 19 59 6 -10 11 -10 25 2z"/>
<path d="M1299 2045 c-51 -28 -55 -96 -7 -129 29 -20 59 -20 84 0 18 15 17 15
-15 10 -90 -16 -113 88 -25 110 24 6 144 -33 144 -46 0 -4 -33 -40 -74 -82
-78 -80 -137 -111 -190 -101 -33 7 -35 -14 -1 -23 36 -9 119 22 174 66 50 40
94 93 86 104 -3 3 -2 4 2 1 3 -3 12 0 19 6 10 8 22 8 45 0 49 -17 103 -14 122
7 23 25 21 39 -8 67 -32 33 -81 33 -128 1 l-35 -24 -59 24 c-67 27 -97 29
-134 9z m336 -21 c31 -31 15 -49 -43 -49 -63 1 -94 23 -66 46 12 9 15 10 10 2
-10 -17 4 -16 28 2 26 19 51 19 71 -1z"/>
<path d="M715 1748 c-31 -18 -44 -40 -45 -74 0 -38 36 -73 105 -103 62 -27 85
-48 85 -77 0 -66 -122 -73 -172 -10 -23 29 -35 11 -28 -44 4 -32 8 -40 14 -28
6 14 18 16 75 11 80 -7 122 10 141 57 21 50 0 82 -81 125 -82 43 -99 59 -99
90 0 48 86 58 125 15 28 -31 45 -25 45 15 0 31 -2 34 -17 27 -10 -5 -27 -6
-38 -1 -30 11 -87 10 -110 -3z"/>
<path d="M1058 1708 c-8 -13 -32 -72 -54 -133 -21 -60 -46 -117 -55 -126 -16
-16 -15 -17 12 -21 33 -5 43 0 30 16 -5 6 -3 31 6 59 13 45 15 47 51 47 67 0
78 -8 90 -58 6 -29 7 -48 1 -50 -20 -8 4 -22 37 -22 31 0 46 13 26 22 -4 2
-31 66 -59 143 -28 76 -55 141 -60 142 -6 2 -17 -7 -25 -19z m46 -116 c7 -21
4 -22 -38 -22 -25 0 -46 2 -46 4 0 4 26 81 36 106 6 14 30 -29 48 -88z"/>
<path d="M1235 1721 c-3 -2 3 -10 13 -17 25 -18 32 -251 8 -260 -37 -14 -10
-22 68 -21 74 2 88 5 110 26 35 33 35 83 1 116 -13 14 -29 25 -35 25 -5 0 -1
9 10 20 27 27 26 76 -2 94 -21 13 -163 27 -173 17z m143 -33 c7 -7 12 -24 12
-38 0 -35 -17 -50 -57 -50 -32 0 -33 1 -33 43 0 24 3 47 7 50 11 11 58 8 71
-5z m-16 -118 c59 -17 74 -72 32 -114 -18 -19 -65 -21 -82 -4 -13 13 -17 110
-5 121 8 9 11 9 55 -3z"/>
<path d="M1498 1698 c21 -11 22 -16 22 -140 0 -79 -4 -128 -10 -128 -5 0 -10
-5 -10 -11 0 -18 158 -6 197 14 86 45 89 198 6 253 -22 14 -51 19 -128 21 -81
2 -96 1 -77 -9z m182 -37 c63 -44 61 -162 -3 -202 -21 -13 -46 -19 -72 -17
l-40 3 -3 109 c-1 61 0 116 3 124 7 18 80 7 115 -17z"/>
<path d="M1780 1703 c0 -2 9 -12 20 -23 18 -18 20 -33 20 -136 0 -107 -1 -116
-20 -121 -44 -12 -15 -18 90 -20 l110 -1 0 28 c0 35 -16 48 -23 19 -5 -18 -12
-20 -59 -17 l-53 3 -3 58 -3 59 43 -7 c24 -4 48 -13 54 -21 17 -22 20 -17 16
27 -3 29 -7 38 -15 30 -6 -6 -31 -11 -55 -11 l-43 0 3 53 c3 49 5 52 32 55 41
5 76 -6 76 -23 0 -8 5 -15 11 -15 7 0 9 9 5 23 -3 12 -6 25 -6 29 0 4 -45 8
-100 10 -55 2 -100 2 -100 1z"/>
<path d="M2030 1693 c0 -5 5 -14 10 -19 6 -6 13 -64 17 -129 6 -107 5 -119
-12 -131 -17 -13 -15 -14 19 -14 32 0 36 2 27 14 -8 9 -11 49 -9 115 l3 100
85 -110 c47 -61 87 -114 88 -120 2 -5 8 -9 13 -9 7 0 8 49 3 135 -6 119 -5
135 10 141 25 10 8 24 -30 24 -32 0 -47 -14 -23 -22 9 -3 33 -188 25 -195 -2
-2 -41 46 -87 107 -46 60 -89 110 -95 110 -7 0 -19 3 -28 6 -9 3 -16 2 -16 -3z"/>
<path d="M2835 1525 c0 -189 3 -281 10 -274 16 16 18 559 2 559 -9 0 -12 -64
-12 -285z"/>
<path d="M2727 1697 l-57 -30 2 -204 c3 -175 5 -203 18 -200 13 2 15 32 15
197 l0 194 48 23 c44 21 57 36 40 46 -5 2 -34 -10 -66 -26z"/>
<path d="M2721 1571 c-1 -48 2 -72 9 -65 6 6 6 34 1 74 l-8 65 -2 -74z"/>
<path d="M2742 1477 c-16 -9 -19 -16 -11 -24 6 -6 9 -38 7 -77 -2 -48 0 -66
10 -66 9 0 12 24 12 84 0 58 4 86 13 89 6 3 8 6 2 6 -5 0 -20 -5 -33 -12z"/>
<path d="M0 1271 c0 -4 37 -11 83 -14 45 -4 114 -9 152 -12 98 -8 53 10 -61
24 -107 13 -174 14 -174 2z"/>
<path d="M2740 1238 c-19 -6 -30 -13 -23 -15 6 -2 33 3 60 11 30 9 39 15 23
14 -14 0 -41 -4 -60 -10z"/>
<path d="M510 1211 c15 -9 278 -53 314 -52 10 0 23 4 28 9 11 11 -16 16 -167
32 -55 6 -120 13 -145 15 -30 4 -40 2 -30 -4z"/>
<path d="M2448 1135 c-4 -33 -7 -210 -8 -394 0 -184 -2 -336 -4 -339 -2 -2
-28 2 -57 7 -30 6 -79 13 -109 16 -147 14 -209 36 -169 61 8 5 10 70 8 220
l-4 214 -34 0 -34 0 6 -172 c10 -249 11 -252 17 -53 l6 180 2 -207 c2 -192 1
-208 -15 -209 -38 -3 -111 4 -175 16 -38 7 -68 9 -68 5 0 -7 92 -23 200 -35
30 -3 93 -12 140 -20 169 -27 231 -35 281 -35 43 0 50 2 40 14 -8 10 -11 97
-9 309 2 162 5 298 8 300 3 3 18 9 33 12 28 7 28 7 25 -31 -2 -30 -7 -39 -20
-38 -10 1 -18 -2 -18 -6 0 -11 36 -20 98 -25 l52 -5 -1 43 c-1 38 -2 39 -8 12
-6 -27 -10 -30 -46 -30 l-40 0 0 55 c0 30 -2 56 -5 58 -3 2 -18 -1 -33 -7 -16
-6 -32 -11 -37 -11 -5 0 -10 35 -12 78 l-3 77 -7 -60z"/>
<path d="M2854 878 c3 -144 2 -259 -3 -267 -6 -10 -32 -13 -95 -13 -47 1 -88
-3 -91 -9 -4 -6 32 -9 102 -7 l108 3 3 40 c7 79 -10 505 -20 505 -7 0 -8 -87
-4 -252z"/>
<path d="M2929 1047 c-31 -11 -35 -15 -28 -37 6 -23 7 -23 8 -3 1 17 9 23 41
28 22 4 42 11 46 16 7 12 -23 10 -67 -4z"/>
<path d="M885 1022 c-33 -15 -80 -40 -105 -56 -25 -16 -67 -38 -94 -47 -66
-25 -70 -33 -14 -26 28 4 56 15 68 27 11 11 26 20 33 20 7 0 33 13 58 28 24
15 65 36 91 46 26 10 50 22 53 27 11 16 -29 8 -90 -19z"/>
<path d="M2765 1029 c-16 -5 -43 -10 -60 -11 l-30 -1 3 -181 c2 -99 4 -181 5
-182 1 -1 22 1 47 5 33 5 39 8 24 12 -18 6 -22 17 -27 90 -4 46 -7 119 -7 161
l0 77 55 11 c30 6 55 16 55 21 0 11 -25 10 -65 -2z"/>
<path d="M685 993 c8 -34 11 -37 24 -28 6 3 11 17 11 31 0 18 -5 24 -21 24
-18 0 -20 -4 -14 -27z"/>
<path d="M975 980 c-22 -10 -48 -19 -58 -19 -10 -1 -48 -11 -85 -23 -37 -12
-73 -23 -81 -25 -8 -2 -12 -6 -9 -8 3 -3 49 4 102 15 93 20 180 52 192 71 8
14 -17 9 -61 -11z"/>
<path d="M2970 991 l-25 -7 2 -135 c0 -73 2 -195 3 -269 1 -74 5 -127 9 -116
4 10 5 124 3 254 -3 190 -2 236 9 243 11 6 15 -1 20 -34 6 -40 6 -40 7 16 1
31 1 57 0 56 -2 -1 -14 -4 -28 -8z"/>
<path d="M2285 968 c-22 -5 -49 -11 -60 -13 -19 -4 -20 -11 -17 -175 l3 -170
29 0 c20 0 30 5 30 15 0 8 5 15 10 15 6 0 10 11 10 25 0 14 -4 25 -8 25 -5 0
-8 -10 -8 -22 1 -18 -5 -24 -26 -26 l-28 -3 0 147 c0 132 2 146 15 128 14 -18
14 -18 15 4 0 26 20 36 67 36 20 0 33 5 33 13 0 15 -8 15 -65 1z"/>
<path d="M2810 940 c-5 -40 -8 -45 -32 -48 -16 -2 -28 -7 -28 -12 0 -8 58 -3
68 5 2 2 2 25 0 51 l-4 49 -4 -45z"/>
<path d="M338 938 c-2 -15 -13 -26 -33 -32 -37 -11 -95 -39 -91 -43 2 -2 30 0
62 3 42 5 53 9 39 15 -18 7 -16 9 13 20 23 10 32 20 32 36 0 30 -18 30 -22 1z"/>
<path d="M626 950 c-15 -5 -36 -15 -45 -23 -9 -8 -34 -23 -55 -34 -21 -11 -35
-22 -30 -24 5 -3 50 16 99 43 85 45 95 57 31 38z"/>
<path d="M2290 931 c-25 -7 -43 -51 -21 -51 6 0 11 9 11 20 0 11 5 20 10 20 6
0 10 -9 10 -20 0 -11 5 -20 10 -20 6 0 10 14 10 30 0 17 -1 30 -2 29 -2 -1
-14 -4 -28 -8z"/>
<path d="M1893 920 c-22 -9 -23 -14 -23 -140 0 -123 1 -130 20 -130 11 0 20 7
20 15 0 8 7 15 15 15 12 0 15 13 15 55 0 48 -3 55 -19 55 -17 0 -19 6 -16 38
4 50 6 52 15 17 7 -28 8 -28 9 12 0 23 4 48 7 57 7 18 -8 20 -43 6z m27 -185
c0 -25 -4 -45 -10 -45 -5 0 -10 20 -10 45 0 25 5 45 10 45 6 0 10 -20 10 -45z"/>
<path d="M941 874 c-1 -27 -6 -44 -16 -47 -10 -4 -13 -18 -11 -44 2 -21 4 -63
6 -93 l2 -55 14 45 c9 29 10 46 4 48 -14 5 -12 68 3 80 6 5 27 13 45 17 17 3
32 12 32 19 0 7 18 21 40 31 62 28 41 28 -34 0 -69 -26 -69 -26 -79 20 -3 11
-5 1 -6 -21z"/>
<path d="M2534 695 c0 -110 2 -156 3 -103 2 53 2 143 0 200 -1 57 -3 13 -3
-97z"/>
<path d="M790 845 c0 -19 5 -35 10 -35 6 0 10 16 10 35 0 19 -4 35 -10 35 -5
0 -10 -16 -10 -35z"/>
<path d="M1104 855 c-18 -14 -18 -14 4 -8 22 5 22 4 22 -98 0 -114 7 -135 38
-125 11 4 36 0 55 -7 43 -19 73 -6 42 17 -11 9 -27 13 -35 10 -18 -7 -18 -7
-52 -5 l-28 1 0 93 c0 93 -6 137 -19 137 -4 0 -16 -7 -27 -15z"/>
<path d="M2270 821 c0 -25 3 -28 25 -23 18 3 25 11 25 28 0 19 -5 24 -25 24
-21 0 -25 -5 -25 -29z"/>
<path d="M2789 842 c-22 -3 -25 -7 -21 -30 5 -25 5 -25 13 -4 15 40 29 23 29
-33 0 -55 -6 -65 -27 -44 -7 7 -12 4 -16 -10 -4 -16 0 -21 13 -21 41 0 46 8
44 76 -2 36 -4 67 -6 68 -2 1 -15 0 -29 -2z"/>
<path d="M1036 748 c3 -51 6 -110 7 -130 l2 -38 67 0 c36 0 73 -3 82 -6 11 -4
16 -1 16 10 0 16 -7 18 -93 20 -42 1 -57 17 -51 53 2 12 0 23 -5 23 -5 0 -9
14 -9 30 1 17 6 30 12 30 7 0 6 3 -1 8 -8 5 -12 24 -10 47 1 24 -3 40 -11 43
-10 3 -11 -17 -6 -90z"/>
<path d="M814 779 c-10 -17 13 -36 27 -22 12 12 4 33 -11 33 -5 0 -12 -5 -16
-11z"/>
<path d="M724 754 c3 -9 7 -39 7 -67 l2 -52 7 60 c5 33 6 63 3 68 -8 14 -25 7
-19 -9z"/>
<path d="M2270 746 c0 -14 5 -28 10 -31 6 -4 10 7 10 24 0 17 -4 31 -10 31 -5
0 -10 -11 -10 -24z"/>
<path d="M2304 754 c3 -9 6 -22 6 -30 0 -9 5 -12 10 -9 17 10 12 55 -6 55 -11
0 -14 -5 -10 -16z"/>
<path d="M607 753 c-4 -3 -7 -28 -7 -55 0 -47 -12 -63 -24 -33 -3 8 -10 15
-16 15 -5 0 -10 -7 -10 -15 0 -18 -24 -20 -38 -2 -7 8 -31 12 -66 10 -40 -2
-60 2 -71 14 -15 14 -17 14 -30 -3 -8 -11 -15 -22 -15 -26 0 -5 30 -8 68 -9
37 0 101 -4 142 -8 41 -4 77 -7 78 -5 2 1 6 30 9 63 5 56 -1 73 -20 54z"/>
<path d="M70 730 c-12 -7 -9 -13 13 -34 28 -26 77 -36 77 -16 0 6 -6 10 -12
11 -7 1 -21 2 -30 3 -10 0 -18 4 -18 9 0 4 0 11 0 16 0 12 54 11 61 -2 4 -6
15 -7 25 -2 17 7 16 9 -6 15 -36 11 -92 11 -110 0z"/>
<path d="M781 718 c1 -7 5 -24 9 -38 l8 -25 1 28 c1 15 1 30 2 34 0 4 -4 9
-10 11 -6 2 -11 -2 -10 -10z"/>
<path d="M1719 685 c-1 -22 -4 -62 -5 -90 -6 -98 -4 -115 16 -115 12 0 12 211
0 230 -7 11 -10 5 -11 -25z"/>
<path d="M2348 645 l-3 -78 -75 1 c-52 0 -67 -2 -50 -8 14 -4 53 -8 88 -9 l62
-1 -6 83 c-4 45 -8 84 -10 86 -2 2 -4 -32 -6 -74z"/>
<path d="M2307 683 c-7 -15 -2 -36 11 -40 7 -3 12 5 12 21 0 24 -14 36 -23 19z"/>
<path d="M0 669 c0 -7 35 -19 58 -19 7 0 11 4 8 9 -7 11 -66 20 -66 10z"/>
<path d="M645 630 c-4 -6 10 -10 35 -10 25 0 39 4 35 10 -3 6 -19 10 -35 10
-16 0 -32 -4 -35 -10z"/>
<path d="M823 633 c-21 -7 -15 -33 7 -33 11 0 20 3 20 8 0 15 -15 29 -27 25z"/>
<path d="M946 615 c-6 -18 7 -27 27 -19 8 3 18 1 22 -5 10 -18 20 -13 21 12 1
18 -4 22 -31 24 -21 1 -36 -4 -39 -12z"/>
<path d="M1775 521 c11 -5 58 -11 104 -15 46 -4 94 -11 107 -16 15 -6 26 -6
30 1 9 16 5 17 -86 28 -101 13 -185 14 -155 2z"/>
<path d="M2794 505 c-4 -9 -3 -54 1 -100 5 -66 10 -85 22 -85 11 0 14 6 9 23
-3 12 -6 57 -6 100 0 72 -12 100 -26 62z"/>
<path d="M2150 480 c14 -9 269 -15 259 -6 -2 2 -65 6 -139 9 -87 4 -130 3
-120 -3z"/>
<path d="M688 472 c19 -13 110 -15 92 -2 -8 5 -35 10 -60 10 -26 0 -40 -4 -32
-8z"/>
<path d="M2500 470 l-25 -8 24 -1 c21 -1 23 -4 18 -35 -4 -24 -1 -36 8 -40 16
-6 21 8 21 53 -1 38 -9 43 -46 31z"/>
<path d="M2615 450 c33 -4 83 -8 110 -8 l50 0 -40 9 c-22 4 -71 7 -110 7 l-70
-1 60 -7z"/>
<path d="M2928 390 c3 -42 7 -50 24 -50 10 0 16 5 13 10 -3 6 3 10 14 10 12 0
21 4 21 9 0 4 -11 6 -25 3 -23 -4 -25 -1 -25 32 0 22 -5 36 -12 36 -9 0 -12
-15 -10 -50z"/>
<path d="M1145 210 c6 -9 91 -50 104 -50 9 0 -92 60 -102 60 -5 0 -5 -4 -2
-10z"/>
</g>
</svg>
